# xmcd CD database file
#
# Track frame offsets:
#	150
#	16116
#	33555
#	44862
#	55842
#	71133
#	86571
#	98067
#	112725
#	124260
#	138906
#	153822
#	167196
#	177300
#	188532
#	202626
#	213111
#	227124
#	238086
#	250914
#
# Disc length: 3610 seconds
#
# Revision: 4
# Processed by: cddbd v1.5.2PL0 Copyright (c) Steve Scherf et al.
# Submitted via: CDex 1.51
#
DISCID=080e1814
DTITLE=Divers - Mega Danses  [CD 2-4]
DYEAR=2005
DGENRE=Dance
TTITLE0=La Bamboula (Marche Brésilienne) - Jorge Antonio Alves
TTITLE1=Soca Dance (Soca) - Jorge Antonio Alves
TTITLE2=Corazón De Melon (Cha-Cha) - Perez Prado
TTITLE3=Robot Swing (Polka Swing) - Daniel Colin
TTITLE4=Charlie Brown (Samba Brésilienne) - Ramon Mendez
TTITLE5=Bamboléo (Disco Gitano) - Ramon Mendez
TTITLE6=Poéma (Tango) - Jo Courtin
TTITLE7=Guantanaméra (Soca) - Jorge Antonio Alves
TTITLE8=Everybody Loves Somebody Sometimes (Slow) - Gérard Messonnier
TTITLE9=Ti Amo (Slow-Rock) - Gérard Messonnier
TTITLE10=Sérenade Près De Mexico (Rumba) - Don Diego
TTITLE11=Salsa Mania (Salsa) - Don Diego
TTITLE12=Isla Tropical (Cha-Cha) - Ramon Mendez
TTITLE13=La Bamba (Bamba) - Los Machucambos
TTITLE14=Soul Fingers (Madison) - Gérard Messonnier
TTITLE15=Murcia (Paso-Doble) - Daniel Colin
TTITLE16=Adieu Foulard (Biguine) - Ramon Mendez
TTITLE17=Parisiana (Valse) - Daniel Colin
TTITLE18=Si J'Avais Un Marteau (Twist) - Rock and Twist
TTITLE19=Génération Twist (Rock) - Rock and Twist
EXTD=YEAR: 2005
EXTT0=
EXTT1=
EXTT2=
EXTT3=
EXTT4=
EXTT5=
EXTT6=
EXTT7=
EXTT8=
EXTT9=
EXTT10=
EXTT11=
EXTT12=
EXTT13=
EXTT14=
EXTT15=
EXTT16=
EXTT17=
EXTT18=
EXTT19=
PLAYORDER=
